<svg width="300" height="300" viewBox="0 0 300 300" fill="none" xmlns="http://www.w3.org/2000/svg">
  <!-- Back folder (offset right/up) -->
  <path d="M105 75 L145 75 L160 58 L255 58 C264 58 270 64 270 73 L270 175 C270 184 264 190 255 190 L105 190 C96 190 90 184 90 175 L90 91 C90 82 96 75 105 75 Z" stroke="white" stroke-width="16" fill="none" stroke-linejoin="round"/>
  <!-- Front folder -->
  <path d="M45 115 L90 115 L105 98 L200 98 C209 98 215 104 215 113 L215 225 C215 234 209 240 200 240 L45 240 C36 240 30 234 30 225 L30 131 C30 122 36 115 45 115 Z" stroke="white" stroke-width="16" fill="none" stroke-linejoin="round"/>
  <!-- Lines inside front folder -->
  <rect x="58" y="162" width="100" height="11" rx="5.5" fill="white"/>
  <rect x="58" y="188" width="78" height="11" rx="5.5" fill="white"/>
</svg>
